<svg width="17" height="22" viewBox="0 0 17 22" fill="none" xmlns="http://www.w3.org/2000/svg">
<mask id="mask0_0_13306" style="mask-type:luminance" maskUnits="userSpaceOnUse" x="0" y="0" width="17" height="22">
<path fill-rule="evenodd" clip-rule="evenodd" d="M0 0H17V22H0V0Z" fill="white"/>
</mask>
<g mask="url(#mask0_0_13306)">
<path fill-rule="evenodd" clip-rule="evenodd" d="M3.32613 10.9868C3.32128 13.9049 5.62862 16.2982 8.45856 16.3102C11.3408 16.3224 13.6677 13.9538 13.6737 11.0013C13.6797 8.09164 11.3615 5.69786 8.53003 5.6897C5.66003 5.68145 3.33103 8.05214 3.32613 10.9868ZM8.68478 22H8.31522C8.2747 21.9813 8.23571 21.9572 8.19345 21.9446C6.17017 21.3425 4.4352 20.2387 2.93767 18.7346C1.65588 17.4471 0.701943 15.9478 0.252875 14.1465C0.139095 13.6902 0.0827364 13.2188 0 12.7543V4.36207C0.1785 3.92913 0.500206 3.79121 0.950337 3.78324C2.50251 3.75574 3.97273 3.36823 5.34682 2.62037C6.2955 2.10408 7.13104 1.44375 7.7526 0.531935C7.9056 0.307573 8.06867 0.111849 8.31522 0H8.68478C8.9341 0.108578 9.08419 0.318241 9.24976 0.528996C9.54763 0.907879 9.85215 1.29425 10.2124 1.60624C11.894 3.06255 13.8759 3.71245 16.0491 3.78253C16.4992 3.79704 16.8195 3.93212 17 4.36207V12.7543C16.9866 12.807 16.9657 12.859 16.9607 12.9124C16.8489 14.1256 16.4858 15.2585 15.8917 16.3082C14.537 18.702 12.5484 20.3582 10.1075 21.4698C9.64741 21.6793 9.15972 21.8249 8.68478 22Z" fill="url(#paint0_linear_0_13306)"/>
</g>
<path fill-rule="evenodd" clip-rule="evenodd" d="M6.48649 11.9963C6.86404 11.6079 7.21642 11.2449 7.56936 10.8825C8.43391 9.9948 9.29902 9.10764 10.1632 8.21963C10.376 8.001 10.6247 7.91187 10.9196 7.99868C11.1947 8.07971 11.3682 8.27055 11.4337 8.55304C11.5043 8.8582 11.3932 9.10461 11.1817 9.32091C10.0483 10.4797 8.91827 11.642 7.78699 12.803C7.47152 13.1267 7.15854 13.453 6.83979 13.7733C6.42181 14.1935 5.86483 14.1024 5.598 13.5682C5.35968 13.0913 5.12667 12.6115 4.89865 12.1294C4.70093 11.7113 4.83846 11.2711 5.21638 11.0801C5.595 10.8888 6.01335 11.045 6.22391 11.4589C6.309 11.6261 6.38892 11.7961 6.48649 11.9963Z" fill="url(#paint1_linear_0_13306)"/>
<defs>
<linearGradient id="paint0_linear_0_13306" x1="0" y1="0" x2="0" y2="22" gradientUnits="userSpaceOnUse">
<stop stop-color="#F7B500"/>
<stop offset="1" stop-color="#FA6400"/>
</linearGradient>
<linearGradient id="paint1_linear_0_13306" x1="4.80859" y1="7.96582" x2="4.80859" y2="14.0373" gradientUnits="userSpaceOnUse">
<stop stop-color="#F7B500"/>
<stop offset="1" stop-color="#FA6400"/>
</linearGradient>
</defs>
</svg>
