<svg width="37" height="21" viewBox="0 0 37 21" fill="none" xmlns="http://www.w3.org/2000/svg">
<mask id="mask0_0_13840" style="mask-type:luminance" maskUnits="userSpaceOnUse" x="0" y="0" width="37" height="18">
<path fill-rule="evenodd" clip-rule="evenodd" d="M0 0.0488281H37V17.9543H0V0.0488281Z" fill="white"/>
</mask>
<g mask="url(#mask0_0_13840)">
<path fill-rule="evenodd" clip-rule="evenodd" d="M11.1335 5.70775C11.2251 5.69698 11.2953 5.68178 11.3656 5.68134C11.8464 5.67787 12.3277 5.68834 12.8082 5.67219C13.1182 5.66164 13.3447 5.41598 13.3452 5.13514C13.3458 4.86234 13.1531 4.71081 12.7875 4.70889C12.1863 4.70565 11.5851 4.70565 10.984 4.70875C10.4853 4.71133 10.2931 4.87761 10.2153 5.38854C10.1359 5.90958 10.0693 6.43269 9.99882 6.95506C9.89049 7.75694 9.77053 8.55757 9.68779 9.36219C9.67247 9.51076 9.77104 9.73561 9.88854 9.81529C9.99405 9.88684 10.2333 9.86058 10.3491 9.78032C10.4795 9.68988 10.5868 9.50088 10.6186 9.3374C10.7164 8.83569 10.7734 8.32571 10.8503 7.79007C11.2672 7.79007 11.6625 7.80283 12.0567 7.78616C12.3966 7.7717 12.6664 7.49307 12.6329 7.20403C12.5917 6.84934 12.3349 6.80434 12.0478 6.80877C11.7032 6.81393 11.3583 6.80995 10.9817 6.80995C11.0349 6.42406 11.0813 6.08663 11.1335 5.70775ZM23.1056 6.72674C23.1374 6.48234 23.1897 6.29009 23.1817 6.10035C23.164 5.6865 23.3509 5.58602 23.7278 5.6114C24.2068 5.64386 24.6906 5.62896 25.1711 5.60779C25.4766 5.59429 25.6831 5.35188 25.6573 5.08025C25.6289 4.78126 25.4244 4.70793 25.1704 4.70808C24.4483 4.70852 23.7261 4.70174 23.0041 4.71125C22.6151 4.71642 22.3916 4.91648 22.3378 5.29943C22.1498 6.63615 21.9672 7.97368 21.7872 9.31158C21.7381 9.67593 21.9023 9.87349 22.2679 9.87748C23.014 9.88566 23.7604 9.88493 24.5065 9.87762C24.8546 9.87423 25.098 9.64525 25.0739 9.35186C25.0453 9.00212 24.7961 8.97246 24.5235 8.97467C23.9606 8.97939 23.3976 8.97615 22.7937 8.97615C22.8554 8.51516 22.9117 8.09466 22.9717 7.64776C23.4411 7.64776 23.8849 7.65189 24.3287 7.64651C24.7107 7.64193 24.953 7.44002 24.9586 7.1358C24.9637 6.85207 24.7878 6.72976 24.3609 6.72718C23.9559 6.72475 23.5508 6.72674 23.1056 6.72674ZM18.8447 8.97607C18.9073 8.51671 18.9642 8.09865 19.0257 7.64761C19.5015 7.64761 19.9562 7.65359 20.4106 7.64577C20.7775 7.6395 21.0461 7.40557 21.0177 7.11042C20.9823 6.74253 20.7078 6.72526 20.4291 6.72637C20.0123 6.72792 19.5955 6.72674 19.1478 6.72674C19.2076 6.32462 19.2589 5.98077 19.3097 5.63973C19.3988 5.63073 19.4461 5.62195 19.4935 5.62173C20.0588 5.6193 20.6245 5.62837 21.1894 5.61251C21.5117 5.60343 21.745 5.35542 21.714 5.08003C21.6783 4.76326 21.4545 4.70498 21.1892 4.70698C20.672 4.71074 20.1545 4.71907 19.6376 4.70572C18.5035 4.67651 18.4417 4.78879 18.3126 5.84253C18.1739 6.97475 17.9989 8.10219 17.8534 9.23353C17.791 9.71909 17.9326 9.87659 18.392 9.87917C19.1137 9.8833 19.8355 9.885 20.5571 9.87755C20.9103 9.87401 21.1435 9.65366 21.1232 9.35371C21.0993 8.99924 20.8496 8.97268 20.5773 8.97475C20.0145 8.9791 19.4515 8.97607 18.8447 8.97607ZM16.5532 7.9936C17.3016 7.48237 17.6468 6.84721 17.6248 6.0507C17.6044 5.31152 17.258 4.84537 16.5415 4.76961C15.8394 4.69547 15.1258 4.70683 14.4183 4.72439C14.093 4.7325 13.9213 4.98443 13.876 5.31514C13.693 6.65142 13.4972 7.98607 13.336 9.32501C13.3165 9.48775 13.4454 9.7843 13.5644 9.82126C13.7276 9.87202 13.9796 9.77818 14.1316 9.66192C14.2412 9.57804 14.2697 9.36042 14.2996 9.19576C14.3625 8.84912 14.4025 8.49811 14.4547 8.12852C14.728 8.12852 14.9686 8.1432 15.2066 8.12439C15.4372 8.1061 15.5523 8.18894 15.6162 8.42066C15.7137 8.77394 15.844 9.11801 15.9648 9.46421C16.0928 9.83085 16.2794 9.94785 16.5796 9.85785C16.8804 9.76778 17.033 9.46008 16.9287 9.12516C16.8124 8.75189 16.683 8.38274 16.5532 7.9936ZM28.4146 4.66205C28.1949 6.44125 27.9838 8.15058 27.7678 9.89924C28.5923 9.89924 29.3612 9.89931 30.1301 9.89924C31.3707 9.89902 32.6112 9.90853 33.8516 9.89481C34.5956 9.88655 34.9675 9.26688 34.6167 8.60589C34.1643 7.75348 33.6907 6.91198 33.1985 6.0828C32.7849 5.38581 32.1586 4.90852 31.3774 4.81158C30.4044 4.69075 29.4152 4.70624 28.4146 4.66205ZM0 11.7855V11.0476C0.293109 10.3662 0.801859 10.1202 1.52661 10.138C2.99433 10.1742 4.46363 10.1523 5.93214 10.1448C6.14576 10.1438 6.36971 10.1225 6.57054 10.0544C7.1087 9.87209 7.43743 9.29454 7.36546 8.71308C7.29572 8.14933 6.85194 7.68443 6.28855 7.64363C5.79722 7.60815 5.30162 7.63935 4.80906 7.61501C4.09529 7.57989 3.60208 7.05752 3.60049 6.3643C3.5989 5.67241 4.08901 5.14443 4.8001 5.10334C5.20818 5.07966 5.61865 5.10401 6.0276 5.09221C6.20574 5.08711 6.39204 5.0731 6.55868 5.01534C7.11881 4.82132 7.44813 4.24466 7.36271 3.64697C7.27773 3.05186 6.77338 2.58998 6.15934 2.57973C5.31694 2.56557 4.47389 2.58674 3.63156 2.56785C2.92278 2.55207 2.42632 1.98632 2.44952 1.26352C2.47257 0.543886 3.01752 0.0578118 3.81505 0.0573692C8.28113 0.0549347 12.7473 0.0379675 17.2132 0.0599511C20.1013 0.0743364 22.9896 0.1245 25.8767 0.203877C27.1452 0.238697 28.1505 1.16009 28.4425 2.41589C28.4809 2.58091 28.5028 2.74992 28.5448 2.98842C29.4573 2.98842 30.3606 2.94814 31.2591 2.99749C32.7496 3.0793 33.9216 3.7754 34.7338 5.06432C35.6328 6.49089 36.4399 7.96704 37 9.57199V10.6787C36.8553 11.4968 36.7148 12.3157 36.5647 13.1328C36.3743 14.1689 36.2431 15.2228 35.7054 16.157C35.3436 16.7858 34.8995 17.3302 34.2049 17.5817C33.9356 17.6791 33.6393 17.6992 33.3508 17.7554C33.1578 15.7806 32.3349 14.6106 30.848 14.1729C29.5794 13.7995 28.3888 14.0505 27.2889 14.7511C26.1143 15.4992 25.361 16.5755 25.0375 17.9543H17.7785C17.6813 17.4103 17.6481 16.8869 17.4912 16.4056C16.8729 14.5095 14.888 13.5609 12.8725 14.1962C11.292 14.6945 10.1873 15.7341 9.61899 17.3385C9.54925 17.5355 9.49903 17.7049 9.21394 17.7016C7.68494 17.6846 6.15566 17.6992 4.62652 17.6908C3.91145 17.6868 3.38933 17.1406 3.39186 16.4315C3.39446 15.7278 3.92236 15.194 4.63989 15.1812C5.09733 15.1731 5.55499 15.1812 6.0125 15.1791C6.81638 15.1753 7.36929 14.6653 7.37254 13.9274C7.37579 13.1817 6.83113 12.6673 6.02746 12.6659C4.55852 12.6634 3.08899 12.6406 1.62077 12.6755C0.88641 12.6929 0.331916 12.4785 0 11.7855Z" fill="#23A54B"/>
</g>
<path fill-rule="evenodd" clip-rule="evenodd" d="M13.1416 21C11.7279 20.9923 10.7733 19.8002 11.0468 18.384C11.3065 17.0386 12.5117 16.0036 13.8227 16C15.1916 15.9964 16.1424 17.0765 15.9825 18.4534C15.82 19.8517 14.5305 21.0075 13.1416 21Z" fill="#23A54B"/>
<mask id="mask1_0_13840" style="mask-type:luminance" maskUnits="userSpaceOnUse" x="26" y="16" width="5" height="5">
<path fill-rule="evenodd" clip-rule="evenodd" d="M26.0078 16.0449H30.9494V20.9999H26.0078V16.0449Z" fill="white"/>
</mask>
<g mask="url(#mask1_0_13840)">
<path fill-rule="evenodd" clip-rule="evenodd" d="M30.9494 18.1826C30.9459 19.8134 29.3882 21.1965 27.802 20.9768C26.7104 20.8257 25.9321 19.8451 26.0137 18.7235C26.1208 17.2509 27.3971 16.0424 28.8426 16.0449C30.0619 16.047 30.9519 16.9501 30.9494 18.1826Z" fill="#23A54B"/>
</g>
<path fill-rule="evenodd" clip-rule="evenodd" d="M2.51618 4.00005C3.3552 4.00648 4.01775 4.68512 3.99964 5.51952C3.98196 6.33569 3.31634 6.99611 2.5073 6.99998C1.68357 7.00386 0.996933 6.31544 1.00001 5.4887C1.00309 4.65272 1.67452 3.99353 2.51618 4.00005Z" fill="#23A54B"/>
<path fill-rule="evenodd" clip-rule="evenodd" d="M14 6.98531C14.0606 6.37824 14.1077 5.80461 14.1846 5.23818C14.1972 5.14566 14.3381 5.02789 14.4257 5.0184C14.6923 4.98947 14.962 5.00136 15.2302 5.00928C15.7421 5.0243 15.967 5.2321 15.9965 5.70408C16.0361 6.33981 15.737 6.92044 15.2863 6.97472C14.8724 7.02457 14.4523 6.98531 14 6.98531Z" fill="#23A54B"/>
</svg>
