<svg width="20" height="20" viewBox="0 0 20 20" fill="none" xmlns="http://www.w3.org/2000/svg">
<path fill-rule="evenodd" clip-rule="evenodd" d="M0 15.3175C0.0321094 15.2043 0.0571094 15.0885 0.0975391 14.9784C0.358789 14.2679 0.849805 13.7945 1.59652 13.7356C2.3723 13.6744 3.1609 13.6623 3.93535 13.7298C5.03301 13.8254 5.73426 14.8654 5.51934 15.9635C5.5143 15.9892 5.51285 16.0156 5.5057 16.075C7.1193 15.9437 8.72324 15.8131 10.353 15.6804V14.7334C10.552 14.8008 10.7154 14.8564 10.8791 14.9115C11.6068 15.1568 12.336 15.3979 13.0605 15.6526C13.1409 15.6809 13.2265 15.7748 13.2565 15.8581C13.5793 16.7532 14.4799 17.2805 15.37 17.0844C16.3073 16.8779 16.9132 16.0389 16.8341 15.057C16.7617 14.1579 15.9902 13.4219 15.0671 13.3831C14.9067 13.3763 14.7415 13.3992 14.5841 13.4343C14.4273 13.4693 14.2774 13.5369 14.1088 13.5957C13.9751 12.6337 13.8418 11.6742 13.7085 10.7148C13.7383 10.7022 13.7671 10.6858 13.798 10.6777C14.9265 10.3814 16.0152 10.4952 17.0654 11.0055C17.1139 11.0291 17.1638 11.0495 17.2325 11.0802C17.2325 10.3031 17.2007 9.55448 17.2405 8.80988C17.2921 7.84254 17.1484 6.92389 16.7959 6.0244C16.5635 5.43147 16.39 4.81472 16.1868 4.19865C16.1243 4.2106 16.074 4.21782 16.0249 4.23008C15.4063 4.38409 14.7896 4.54675 14.1686 4.69004C13.8623 4.76079 13.5779 4.56405 13.4953 4.2598C13.4157 3.96667 13.5823 3.65107 13.8753 3.54567C13.9424 3.52151 14.0134 3.50857 14.0828 3.49103C14.7196 3.32984 15.3576 3.17341 15.9918 3.00214C16.0757 2.97952 16.172 2.89647 16.2082 2.81619C16.5493 2.06 16.8853 1.30123 17.2077 0.536627C17.3166 0.278373 17.4636 0.0827778 17.7344 0H17.8906C18.395 0.190635 18.5186 0.488254 18.3004 0.986944C17.9573 1.77123 17.6102 2.55377 17.2758 3.34187C17.235 3.43825 17.2302 3.57472 17.2623 3.67496C17.5891 4.69845 17.9322 5.71659 18.258 6.74036C18.3329 6.97559 18.3989 7.22639 18.4011 7.47071C18.4144 8.91214 18.4098 10.3538 18.4046 11.7953C18.4041 11.9511 18.4458 12.0664 18.5461 12.1852C19.9873 13.8932 20.0396 16.3925 18.6722 18.1641C18.51 18.3742 18.3258 18.5667 18.1266 18.7963C18.5195 18.7963 18.882 18.811 19.2428 18.7922C19.6041 18.7733 19.8589 18.9029 20 19.246V19.5238C19.9125 19.7725 19.7386 19.9261 19.4922 20H0.507812C0.263984 19.9233 0.0867578 19.7734 0 19.5238V19.246C0.140781 18.9014 0.397969 18.7907 0.758125 18.7915C4.38262 18.7994 8.00707 18.7963 11.6316 18.7963H11.9092C11.3037 18.2269 10.8875 17.5968 10.6159 16.8587C9.94609 16.9045 9.28469 16.9485 8.62348 16.9951C6.40418 17.1518 4.18512 17.3117 1.96559 17.4656C1.20555 17.5183 0.522539 17.1091 0.196797 16.4077C0.112109 16.2254 0.0645703 16.0253 0 15.8333V15.3175Z" fill="#DE0200"/>
<path fill-rule="evenodd" clip-rule="evenodd" d="M11.9531 0C12.4721 0.217937 12.5748 0.507183 12.3183 1.02933C11.9066 1.86742 11.4978 2.70702 11.0794 3.54163C11.0189 3.66218 11.0272 3.73333 11.1144 3.83321C11.6628 4.46024 12.1937 5.10345 12.753 5.72012C12.9783 5.96849 13.0823 6.24194 13.126 6.56409C13.3057 7.89119 13.4932 9.21718 13.6786 10.5435C13.6868 10.6022 13.7023 10.6598 13.7145 10.7179C13.3409 10.8608 12.9673 11.0037 12.5813 11.1513C12.5061 10.627 12.4259 10.0754 12.3482 9.52341C12.2157 8.58234 12.0863 7.64083 11.9498 6.70036C11.9394 6.62857 11.8954 6.55333 11.8473 6.49702C11.2204 5.76361 10.5907 5.0327 9.96028 4.30254C9.67125 3.9677 9.64661 3.79044 9.84364 3.38956C10.3166 2.42734 10.7947 1.46754 11.2598 0.501468C11.3782 0.255556 11.5299 0.0702778 11.7968 0H11.9531Z" fill="#DE0200"/>
<path fill-rule="evenodd" clip-rule="evenodd" d="M6.06159 12.0187C7.59835 12.5391 9.11202 13.0517 10.6206 13.5626C10.5274 13.9574 10.4389 14.3326 10.346 14.726C10.0487 14.6266 9.74811 14.5272 9.44811 14.4256C7.7719 13.8581 6.0962 13.289 4.41889 12.7248C4.30436 12.6862 4.1785 12.6682 4.05752 12.6662C3.61518 12.6588 3.17249 12.67 2.73026 12.6598C1.73143 12.6369 0.935728 11.8002 0.939712 10.7868C0.943657 9.77566 1.74901 8.94312 2.74733 8.92943C3.37842 8.92078 4.00967 8.92364 4.64081 8.92804C5.39221 8.93328 5.95823 9.27308 6.29424 9.95344C6.62874 10.6307 6.56854 11.2947 6.13366 11.917C6.11506 11.9436 6.09616 11.9699 6.06159 12.0187Z" fill="#DE0200"/>
<path fill-rule="evenodd" clip-rule="evenodd" d="M13.0255 14.3767C12.2204 14.1039 11.4411 13.84 10.6481 13.5713C10.8457 13.0399 11.1153 12.577 11.4726 12.1699C11.5674 12.062 11.5849 11.9784 11.5301 11.8407C10.9532 10.39 10.3861 8.93529 9.80978 7.48438C9.77146 7.38803 9.69478 7.29196 9.61088 7.23208C8.82279 6.67013 8.02877 6.11676 7.23744 5.5595C6.92959 5.34267 6.86271 5.16577 6.94248 4.7962C7.18052 3.69323 7.41881 2.59029 7.65724 1.48743C7.74119 1.09922 8.03111 0.884893 8.37322 0.957313C8.70947 1.02846 8.88756 1.35382 8.80381 1.74267C8.60088 2.68446 8.4033 3.62751 8.19033 4.56696C8.15517 4.722 8.19892 4.78878 8.31552 4.86938C9.01998 5.3566 9.7174 5.85434 10.4215 6.34208C10.6281 6.48521 10.7654 6.66481 10.8578 6.90402C11.3703 8.23152 11.8802 9.56045 12.423 10.8752C12.6082 11.3239 12.6647 11.7863 12.7333 12.2531C12.8226 12.8608 12.9063 13.4693 12.9915 14.0776C13.0042 14.1676 13.0122 14.2583 13.0255 14.3767Z" fill="#DE0200"/>
<path fill-rule="evenodd" clip-rule="evenodd" d="M15.6661 15.2519C15.6662 15.6317 15.3686 15.9292 14.9931 15.9246C14.6285 15.9201 14.3369 15.6212 14.3372 15.2524C14.3375 14.8868 14.6327 14.5814 14.9927 14.5743C15.3578 14.5671 15.6659 14.8772 15.6661 15.2519Z" fill="#DE0200"/>
</svg>
