<svg width="22" height="20" viewBox="0 0 22 20" fill="none" xmlns="http://www.w3.org/2000/svg">
<path fill-rule="evenodd" clip-rule="evenodd" d="M0 16.7593C0.0296542 16.6819 0.060775 16.6051 0.088825 16.5273C0.2948 15.9554 0.817988 15.556 1.41171 15.5554C5.39765 15.5511 9.38355 15.5532 13.3695 15.5536C13.3843 15.5536 13.3992 15.5594 13.4402 15.5677C13.4055 15.6221 13.3797 15.6712 13.3459 15.714C12.6465 16.6004 11.9434 17.4839 11.2492 18.3745C11.1548 18.4956 11.0523 18.5169 10.9159 18.5168C7.87682 18.5144 4.83775 18.515 1.79868 18.515C0.738696 18.515 0.370929 18.2601 0 17.2685V16.7593Z" fill="#DE0200"/>
<path fill-rule="evenodd" clip-rule="evenodd" d="M22 18.2866C21.8707 18.4368 21.7226 18.5188 21.5104 18.5185C18.4335 18.5138 15.3565 18.5168 12.2796 18.518H12.0916C12.1388 18.445 12.1659 18.3943 12.201 18.35C13.0962 17.2172 13.9931 16.0856 14.8881 14.9526C15.3566 14.3594 15.961 14.0641 16.7156 14.0684C17.8303 14.0747 18.945 14.0694 20.0598 14.0702C21.0622 14.0709 21.7238 14.5986 21.9672 15.5884C21.9724 15.6096 21.9888 15.6279 22 15.6477V18.2866Z" fill="#DE0200"/>
<path fill-rule="evenodd" clip-rule="evenodd" d="M19.6167 0C19.6484 0.018287 19.679 0.0390741 19.7121 0.0544444C20.1966 0.279444 20.3304 0.858657 19.9609 1.24269C19.2849 1.94523 18.5948 2.63426 17.9013 3.31935C17.6337 3.58375 17.2912 3.69778 16.9192 3.69852C15.3381 3.70167 13.7569 3.7019 12.1758 3.69852C11.7499 3.69764 11.4304 3.43296 11.3721 3.05333C11.319 2.70704 11.5409 2.35384 11.8889 2.25329C11.9964 2.22222 12.1146 2.22019 12.228 2.22005C13.7252 2.21801 15.2223 2.22208 16.7194 2.21222C16.8388 2.21144 16.9859 2.14861 17.0721 2.06444C17.6159 1.53375 18.1412 0.983843 18.6835 0.451667C18.8552 0.283241 19.0602 0.149537 19.25 0H19.6167Z" fill="#DE0200"/>
<path fill-rule="evenodd" clip-rule="evenodd" d="M1.69571 20.0003C1.37135 19.8735 1.12981 19.6767 1.10181 19.2744H4.02616C4.01177 19.6708 3.76931 19.8717 3.43738 20.0003H1.69571Z" fill="#DE0200"/>
<path fill-rule="evenodd" clip-rule="evenodd" d="M18.5624 20.0003C18.2381 19.8735 17.9965 19.6767 17.9685 19.2744H20.8929C20.8785 19.6708 20.636 19.8717 20.3041 20.0003H18.5624Z" fill="#DE0200"/>
<path fill-rule="evenodd" clip-rule="evenodd" d="M18.0147 13.3132C17.1819 10.3705 16.3467 7.41897 15.5022 4.43457H17.3342C18.1637 7.36439 19.003 10.3288 19.848 13.3132H18.0147Z" fill="#DE0200"/>
</svg>
