<svg width="20" height="20" viewBox="0 0 20 20" fill="none" xmlns="http://www.w3.org/2000/svg">
<path fill-rule="evenodd" clip-rule="evenodd" d="M5.43734 15.1805H6.59039V14.0378H5.43734V15.1805ZM14.7772 18.8224C14.6262 18.4301 14.4755 18.0648 14.3468 17.6918C14.2911 17.5302 14.2125 17.4785 14.0407 17.4789C11.1777 17.4846 8.31469 17.483 5.45168 17.483C5.42562 17.483 5.39922 17.4861 5.37367 17.4826C5.265 17.4678 5.21113 17.5166 5.17469 17.6193C5.07902 17.8884 4.97199 18.1536 4.86965 18.4204C4.82012 18.5496 4.7709 18.679 4.71613 18.8224H14.7772ZM16.2891 0H17.4609C17.3296 2.2634 16.0775 3.53055 13.9148 3.99738V8.43535C16.4289 8.43844 18.0476 10.3081 18.3923 12.0043C18.5787 12.921 18.5191 13.8184 18.1555 14.6828C17.6286 15.9352 16.703 16.7787 15.4311 17.2522C15.6075 17.7133 15.7848 18.153 15.942 18.5996C16.0024 18.7711 16.082 18.8334 16.2717 18.832C17.5144 18.8223 18.7572 18.8277 20 18.8281V20H0V18.8281C1.09367 18.8277 2.1873 18.8251 3.28094 18.8296C3.40949 18.8301 3.47602 18.8004 3.52125 18.67C3.63824 18.3325 3.77531 18.002 3.90285 17.668C3.92441 17.6116 3.93848 17.5523 3.95914 17.4838C3.84066 17.4693 3.74984 17.4628 3.66082 17.4466C2.52734 17.2403 1.6368 16.3146 1.52461 15.2279C1.39855 14.0066 2.01668 12.9591 3.1373 12.498C3.58199 12.315 4.02883 12.1373 4.4732 11.9536C4.6516 11.8798 4.90352 11.8396 4.97926 11.7043C5.0475 11.5823 4.92621 11.3498 4.87914 11.1685C4.71133 10.5216 4.53949 9.87578 4.36484 9.21313H2.32109V8.03887H4.05859C3.91207 7.4816 3.77043 6.94297 3.62664 6.39621C3.56 6.40355 3.50914 6.40684 3.4591 6.41504C2.39875 6.58859 1.4309 5.85035 1.33363 4.79324C1.23688 3.74191 2.06281 2.82633 3.13402 2.8152C4.10391 2.8052 5.07398 2.80879 6.04391 2.81437C6.69809 2.81816 7.21113 3.26117 7.32715 3.90543C7.43313 4.49395 7.0875 5.08762 6.49672 5.31848C6.12156 5.46508 5.74223 5.60117 5.365 5.74246C5.15394 5.82152 4.94328 5.90168 4.73039 5.98215C5.19703 7.76063 5.65785 9.51672 6.12078 11.2811C6.21746 11.2446 6.28453 11.2208 6.35043 11.1941C7.28977 10.813 8.22836 10.4301 9.16824 10.0504C10.2948 9.59519 11.421 9.13871 12.5518 8.69402C12.6892 8.64 12.7387 8.5891 12.7382 8.43848C12.7323 6.64176 12.7344 4.845 12.7344 3.04828V2.81371C12.991 2.81371 13.2183 2.81531 13.4456 2.81348C15.0427 2.80055 16.2618 1.59398 16.2891 0Z" fill="#DE0200"/>
</svg>
