<svg width="19" height="20" viewBox="0 0 19 20" fill="none" xmlns="http://www.w3.org/2000/svg">
<path fill-rule="evenodd" clip-rule="evenodd" d="M1.62292 0C1.78905 0.0732813 1.96523 0.130391 2.11925 0.22332C2.41173 0.399844 2.58677 0.669297 2.69586 0.989375C3.98236 4.76367 5.27175 8.53703 6.5605 12.3106C6.5812 12.3711 6.604 12.431 6.62902 12.5H6.87C9.84422 12.5 12.8184 12.5013 15.7927 12.4963C15.9465 12.496 16.0223 12.5404 16.0914 12.6778C16.9927 14.4708 17.9022 16.2597 18.8066 18.0512C18.8821 18.2006 18.9361 18.3605 19 18.5156V18.9453C18.8974 19.1452 18.8144 19.3582 18.6875 19.5417C18.5096 19.7989 18.2204 19.906 17.9312 20H17.4958C16.9572 19.8734 16.6455 19.5185 16.4102 19.0383C15.7766 17.7451 15.1111 16.4671 14.4659 15.1793C14.3974 15.0426 14.3235 14.9958 14.1683 14.9961C11.7934 15.0017 9.41846 15 7.04354 15H6.81186C6.68994 14.3327 6.37121 13.8108 5.80996 13.4491C5.24392 13.0844 4.62678 13.0027 3.9672 13.1675C3.93965 13.0981 3.91353 13.0396 3.89294 12.9793C3.26851 11.1502 2.64448 9.32102 2.02077 7.49168C1.34694 5.51535 0.67359 3.53891 0 1.5625V1.13281C0.112219 0.911406 0.201083 0.674062 0.342317 0.472461C0.531485 0.202461 0.839048 0.0914453 1.14792 0H1.62292Z" fill="#DE0200"/>
<path fill-rule="evenodd" clip-rule="evenodd" d="M0.712402 20.0004C0.749888 19.7768 0.768413 19.5482 0.828104 19.3305C1.1226 18.2562 2.10724 17.5102 3.23251 17.5014C3.64129 17.4983 4.05019 17.5025 4.45896 17.5094C5.41985 17.5258 6.12752 17.1175 6.59544 16.2904C6.62758 16.2336 6.72131 16.1773 6.7865 16.1771C9.02197 16.1713 11.2575 16.173 13.493 16.1699C13.5998 16.1698 13.6558 16.2 13.7029 16.2974C13.8815 16.6669 14.0749 17.0293 14.253 17.399C14.2934 17.4829 14.3104 17.5851 14.3111 17.6791C14.3157 18.3819 14.3132 19.0847 14.3143 19.7875C14.3144 19.8585 14.3239 19.9294 14.3291 20.0004H0.712402Z" fill="#DE0200"/>
<path fill-rule="evenodd" clip-rule="evenodd" d="M6.58665 8.71857C6.36788 8.07755 6.1542 7.45158 5.93115 6.79814H6.15963C8.01913 6.79814 9.87868 6.79736 11.7382 6.79837C13.2747 6.79915 14.3677 7.87658 14.3697 9.39064C14.3705 10.0276 14.3698 10.6644 14.3698 11.3146H12.6351V8.71857H6.58665Z" fill="#DE0200"/>
<path fill-rule="evenodd" clip-rule="evenodd" d="M13.6013 3.4284C13.7296 3.04836 13.8481 2.6977 13.9755 2.32031C14.9477 2.63258 15.8058 3.12078 16.5699 3.77078C17.6458 4.68594 18.4142 5.80734 18.88 7.15535C18.4984 7.28059 18.1333 7.40043 17.7548 7.52461C17.4122 6.54813 16.8875 5.70793 16.1624 4.99391C15.4376 4.28027 14.5882 3.75965 13.6013 3.4284Z" fill="#DE0200"/>
<path fill-rule="evenodd" clip-rule="evenodd" d="M11.4354 9.89453V11.3198C11.3688 11.3228 11.3111 11.3277 11.2535 11.3277C10.0531 11.3282 8.85268 11.3254 7.65231 11.3317C7.51456 11.3325 7.45744 11.2908 7.41703 11.164C7.28339 10.7441 7.13646 10.3284 6.98901 9.89453H11.4354Z" fill="#DE0200"/>
<path fill-rule="evenodd" clip-rule="evenodd" d="M16.599 7.905C16.2567 8.01848 15.927 8.12828 15.5968 8.23645C15.5669 8.24629 15.5336 8.24617 15.4908 8.2523C15.019 6.99363 14.1466 6.12922 12.8521 5.65719C12.9757 5.29043 13.097 4.9309 13.2179 4.57227C14.7362 4.98211 16.1736 6.42859 16.599 7.905Z" fill="#DE0200"/>
<path fill-rule="evenodd" clip-rule="evenodd" d="M4.58588 16.3368C4.00029 16.3368 3.52513 15.8687 3.52834 15.2951C3.5315 14.7233 4.01355 14.2548 4.59455 14.2588C5.168 14.2627 5.63556 14.7259 5.63951 15.294C5.64355 15.872 5.17386 16.3369 4.58588 16.3368Z" fill="#DE0200"/>
</svg>
