<svg width="15" height="17" viewBox="0 0 15 17" fill="none" xmlns="http://www.w3.org/2000/svg">
<path fill-rule="evenodd" clip-rule="evenodd" d="M14.7545 4.25C14.7545 4.8875 14.5379 5.525 14.1048 6.02969C14.7545 7.09219 15.0252 8.2875 14.9982 9.5625C14.9982 13.6797 11.6682 17 7.49908 17C3.32992 17 0 13.6797 0 9.5625C0 8.2875 0.297797 7.09219 0.947537 6.02969C0.514377 5.525 0.297797 4.8875 0.297797 4.25C0.297797 2.68281 1.59728 1.40781 3.19455 1.43438C4.06087 1.43438 4.92719 1.85938 5.44157 2.49688C5.76671 2.37725 6.1376 2.31748 6.48556 2.26141C6.60116 2.24278 6.71424 2.22456 6.82227 2.20469V1.43438H6.09131C5.65815 1.43438 5.36035 1.14219 5.36035 0.717188C5.36035 0.292188 5.65815 0 6.09131 0H8.961C9.39416 0 9.69195 0.265625 9.69195 0.690625C9.69195 1.11563 9.39416 1.40781 8.961 1.40781H8.23004V2.17812C8.74442 2.25781 9.17758 2.3375 9.61073 2.47031C10.1251 1.83281 10.9914 1.40781 11.8578 1.40781C13.455 1.40781 14.7545 2.68281 14.7545 4.25ZM13.2926 4.25C13.2926 3.47969 12.6429 2.84219 11.8578 2.84219C11.56 2.84219 11.2892 2.89531 11.1268 3.05469C11.9119 3.47969 12.6429 4.0375 13.2114 4.75469C13.2114 4.67137 13.2336 4.57353 13.2548 4.48015C13.2741 4.39491 13.2926 4.31338 13.2926 4.25ZM1.75971 4.25C1.75971 3.47969 2.40945 2.84219 3.19455 2.84219C3.49235 2.84219 3.76308 2.92188 3.97966 3.05469C3.19455 3.47969 2.4636 4.0375 1.81386 4.75469C1.81386 4.67137 1.79906 4.57353 1.78494 4.48015L1.78494 4.48015C1.77204 4.39491 1.75971 4.31338 1.75971 4.25ZM1.46191 9.5625C1.46191 12.8828 4.14209 15.5922 7.52615 15.5922C10.9102 15.5922 13.5904 12.9094 13.5904 9.5625C13.5904 6.21562 10.9102 3.53281 7.52615 3.53281C4.19624 3.53281 1.46191 6.24219 1.46191 9.5625Z" fill="#DE0200"/>
<path d="M10.2819 9.73953H8.15426V6.75349C8.15426 6.30698 7.8617 6 7.43617 6C7.01064 6 6.71809 6.30698 6.71809 6.75349V9.73953C6.29255 9.73953 6 10.0465 6 10.493C6 10.9395 6.29255 11.2465 6.71809 11.2465C6.71809 11.693 7.01064 12 7.43617 12C7.8617 12 8.15426 11.693 8.15426 11.2465H10.2819C10.7074 11.2465 11 10.9395 11 10.493C10.9734 10.0186 10.7074 9.73953 10.2819 9.73953Z" fill="#DE0200"/>
</svg>
