<svg width="51" height="51" viewBox="0 0 51 51" fill="none" xmlns="http://www.w3.org/2000/svg">
<path d="M25.6729 1.5C38.8349 1.5 49.501 12.1884 49.501 25.3672C49.5008 38.5459 38.8348 49.2334 25.6729 49.2334C12.5111 49.2332 1.84588 38.5457 1.8457 25.3672C1.8457 12.1885 12.511 1.50024 25.6729 1.5Z" fill="#14689A" stroke="white" stroke-width="3"/>
<path fill-rule="evenodd" clip-rule="evenodd" d="M11 24.9294C11 16.7534 17.6674 10.6689 26.261 10.6689C34.9039 10.6689 41.6207 16.8485 41.6207 24.9769C41.6207 33.1054 34.9533 39.1898 26.3103 39.2374C24.7299 39.2374 23.2483 38.9522 21.8654 38.6194C21.5869 38.5301 21.2647 38.6087 21.0629 38.6579C21.0501 38.6611 21.0377 38.6641 21.0258 38.667L17.9637 39.9504C17.1241 40.3307 16.2845 39.7127 16.2352 38.9046L16.1858 36.2902C16.1364 36.005 15.9882 35.6723 15.7907 35.4821C12.8274 32.9628 11 29.2551 11 24.9294ZM30.7077 28.8328L35.2602 21.9862C35.6604 21.3638 34.91 20.6457 34.1596 20.9329L29.307 24.5238C28.9568 24.7153 28.5566 24.7153 28.2064 24.5238L24.6045 21.8905C23.554 21.0766 22.0031 21.4596 21.3028 22.5129L16.7503 29.3595C16.3001 30.0298 17.1506 30.7958 17.8009 30.317L22.7035 26.8219C23.0537 26.6304 23.4539 26.6304 23.8041 26.8219L27.406 29.4552C28.4565 30.2691 30.0074 29.8861 30.7077 28.8328Z" fill="white"/>
</svg>
