<svg width="21" height="18" viewBox="0 0 21 18" fill="none" xmlns="http://www.w3.org/2000/svg">
<mask id="mask0_0_6445" style="mask-type:luminance" maskUnits="userSpaceOnUse" x="0" y="0" width="21" height="9">
<path fill-rule="evenodd" clip-rule="evenodd" d="M0 0.0390625H20.1345V8.07742H0V0.0390625Z" fill="white"/>
</mask>
<g mask="url(#mask0_0_6445)">
<path fill-rule="evenodd" clip-rule="evenodd" d="M20.1345 7.6793C19.8932 8.13158 19.6014 8.19464 19.1832 7.88829C16.1936 5.69835 13.203 3.50988 10.2162 1.31612C10.0948 1.22707 10.0224 1.24597 9.9139 1.32557C6.93087 3.51338 3.94566 5.69823 0.960734 7.88344C0.606208 8.14293 0.297412 8.13182 0.101618 7.8537C-0.0911045 7.57992 -0.00882441 7.29807 0.341014 7.04193C3.4367 4.77515 6.53238 2.50849 9.62854 0.242383C9.99784 -0.0279713 10.1438 -0.0279713 10.5071 0.237972C13.6137 2.5118 16.7208 4.78516 19.8243 7.06332C19.9457 7.15245 20.0319 7.2894 20.1345 7.40406V7.6793Z" fill="white"/>
</g>
<path fill-rule="evenodd" clip-rule="evenodd" d="M3.26908 16.9456H3.47346C4.73145 16.9456 5.98944 16.9428 7.24739 16.9491C7.41026 16.9499 7.45788 16.9043 7.45721 16.7406C7.45138 15.3123 7.44968 13.884 7.45532 12.4556C7.46028 11.1913 8.24247 10.1701 9.42732 9.86328C10.9809 9.46094 12.5708 10.5822 12.6647 12.1795C12.7116 12.9763 12.683 13.7775 12.6855 14.5766C12.6878 15.3039 12.6878 16.0312 12.6843 16.7585C12.6837 16.8808 12.6996 16.9493 12.8513 16.9486C14.1551 16.9432 15.4589 16.9453 16.7628 16.9447C16.7883 16.9446 16.8139 16.9389 16.8707 16.9321V16.7069C16.8707 14.0402 16.8705 11.3735 16.871 8.70691C16.8711 8.32544 17.0804 8.09133 17.4087 8.09983C17.6577 8.10629 17.8594 8.27708 17.9009 8.52443C17.9149 8.60781 17.9168 8.69395 17.9168 8.77879C17.9176 11.6224 17.9175 14.4659 17.9173 17.3094C17.9173 17.3618 17.9184 17.4144 17.9141 17.4666C17.8875 17.7908 17.6896 17.9839 17.3642 17.9844C15.6411 17.9869 13.9179 17.9871 12.1948 17.9845C11.8379 17.984 11.6414 17.7695 11.6412 17.3929C11.6402 15.7418 11.6436 14.0908 11.6395 12.4397C11.6373 11.5564 10.9882 10.8661 10.1394 10.8298C9.24149 10.7912 8.50416 11.4982 8.50081 12.4182C8.49498 14.0299 8.49908 15.6417 8.499 17.2534C8.499 17.3124 8.49999 17.3714 8.49873 17.4303C8.49172 17.7724 8.28812 17.984 7.94695 17.9845C6.22379 17.987 4.5006 17.9869 2.77744 17.9845C2.45021 17.984 2.25265 17.7927 2.2261 17.4686C2.22177 17.4165 2.22275 17.3638 2.22275 17.3115C2.22263 14.4679 2.22256 11.6244 2.22311 8.78084C2.22311 8.70242 2.22413 8.62309 2.23528 8.54574C2.27506 8.2707 2.49326 8.09058 2.76835 8.1005C3.03787 8.11023 3.24596 8.31221 3.26644 8.58729C3.27175 8.65898 3.269 8.73133 3.269 8.80341C3.26908 11.4307 3.26908 14.058 3.26908 16.6854V16.9456Z" fill="white"/>
</svg>
