<svg width="38" height="28" viewBox="0 0 38 28" fill="none" xmlns="http://www.w3.org/2000/svg">
<path fill-rule="evenodd" clip-rule="evenodd" d="M8.92998 4.13383C8.99169 4.23668 9.08613 4.24286 9.16366 4.27317C10.4576 4.77923 11.7525 5.28285 13.0471 5.78722C15.7834 6.8533 18.5197 7.91957 21.2559 8.98585C21.3664 9.0289 21.4677 9.06226 21.5959 9.01279C22.3766 8.71157 23.16 8.41696 23.9457 8.12886C24.1016 8.07166 24.1659 7.99562 24.1632 7.82404C24.153 7.15292 24.1535 6.48139 24.1623 5.81022C24.165 5.60608 24.1062 5.49537 23.8977 5.41329C20.945 4.25064 17.9961 3.07843 15.0482 1.90388C14.905 1.84682 14.7855 1.84574 14.6427 1.90182C13.0998 2.50786 11.5545 3.10804 10.01 3.71019C9.65129 3.85 9.2932 3.99131 8.92998 4.13383ZM20.9553 9.21008C20.5415 9.04896 20.1543 8.89828 19.7671 8.74746C16.0596 7.30346 12.3519 5.85974 8.6449 4.41415C8.50837 4.36093 8.38776 4.33694 8.23812 4.39569C6.37907 5.12556 4.51693 5.8477 2.65626 6.57368C2.58244 6.60245 2.49427 6.61538 2.43218 6.70014C2.49655 6.72984 2.54453 6.75505 2.59474 6.77464C6.61844 8.34233 10.6425 9.90917 14.6655 11.4787C14.8 11.5312 14.9164 11.5268 15.0513 11.4757C16.8825 10.7827 18.716 10.0957 20.5475 9.40344C20.6759 9.3549 20.8186 9.32782 20.9553 9.21008ZM15.4829 26.4613C15.9199 26.2808 16.3125 26.1179 16.7055 25.9563C19.1218 24.9624 21.5379 23.9678 23.9556 22.9773C24.0973 22.9193 24.1627 22.8495 24.1625 22.6869C24.158 18.3388 24.1581 13.9906 24.1612 9.64249C24.1613 9.44978 24.1245 9.39492 23.919 9.47278C21.2096 10.4996 18.4986 11.5224 15.7836 12.5347C15.5552 12.6198 15.4759 12.7164 15.4764 12.9638C15.4855 17.3666 15.483 21.7694 15.4829 26.1721V26.4613ZM1.27316 14.5256C1.27316 16.7348 1.27672 18.944 1.26751 21.1531C1.2666 21.3688 1.33363 21.4623 1.53505 21.5404C5.66445 23.1413 9.79077 24.75 13.9176 26.3571C14.2062 26.4695 14.2068 26.4696 14.2068 26.1545C14.207 21.7439 14.205 17.3334 14.2127 12.9229C14.2131 12.7037 14.1394 12.6152 13.9406 12.5382C9.81114 10.9375 5.68469 9.32928 1.55748 7.72289C1.27406 7.6126 1.27321 7.61381 1.27321 7.92154C1.27311 10.1229 1.27316 12.3242 1.27316 14.5256ZM24.8095 3.43639C24.8065 3.52203 24.8006 3.60768 24.8006 3.69333C24.8002 10.4109 24.8002 17.1284 24.8006 23.8459C24.8006 23.9394 24.8056 24.0329 24.8083 24.1264C24.8168 24.1457 24.8253 24.165 24.8337 24.1843C25.5852 24.4906 26.3658 24.7148 27.1325 24.9781C28.6396 25.4955 30.1468 26.0128 31.6618 26.507C32.2176 26.6883 32.7527 26.9385 33.337 27.0324C33.3781 27.0286 33.3824 27.0099 33.3588 26.9799C33.3604 20.0074 33.3622 13.0349 33.3638 6.06229C33.3747 6.03287 33.363 6.01661 33.3331 6.01089C32.9605 5.92866 32.6041 5.79467 32.2411 5.68119C31.1284 5.33345 30.0138 4.99124 28.899 4.65006C28.1641 4.42512 27.4261 4.20983 26.692 3.98236C26.1068 3.80104 25.5254 3.60787 24.9423 3.41999C24.8928 3.38433 24.842 3.33842 24.8095 3.43639ZM28.4402 2.03174C29.5433 2.36946 30.6458 2.70895 31.7496 3.04437C32.8095 3.36653 33.8739 3.67487 34.9296 4.00972C35.2769 4.11987 35.6439 4.17914 35.9671 4.36013C35.9618 4.43763 35.9518 4.51517 35.9517 4.59271C35.951 11.0096 35.9509 17.4265 35.9522 23.8434C35.9522 23.9265 35.9259 24.0162 35.9896 24.0911C36.303 24.3002 36.6694 24.3966 37.0072 24.554C37.3148 24.6974 37.3372 24.6803 37.3372 24.352C37.3373 17.5019 37.3362 10.6518 37.3426 3.8017C37.3428 3.60721 37.2751 3.52728 37.1011 3.47509C35.7995 3.08476 34.4997 2.68885 33.1992 2.29496C32.1661 1.98203 31.1331 1.66901 30.0997 1.35702C29.632 1.21581 29.1636 1.07708 28.6955 0.937267C28.677 0.922883 28.6586 0.908546 28.6402 0.894162C28.6289 0.888353 28.6169 0.885261 28.6042 0.884933C28.4551 0.802847 28.4551 0.802847 28.4227 0.90686L28.4124 1.08363C28.3907 1.31228 28.3657 1.54073 28.3489 1.76974C28.3418 1.86626 28.322 1.97444 28.4402 2.03174ZM26.5026 3.23722C26.5838 3.26331 26.6648 3.29025 26.7464 3.31532C28.7495 3.93152 30.7541 4.54305 32.7548 5.16708C33.1766 5.29868 33.6132 5.38967 34.0152 5.58111C34.0161 5.59756 34.0169 5.614 34.0178 5.6305C34.0158 5.69286 34.0121 5.75522 34.0121 5.81758C34.0118 12.2567 34.0118 18.6958 34.0122 25.135C34.0122 25.205 34.0181 25.2751 34.0212 25.3451C34.0307 25.3637 34.0402 25.3823 34.0497 25.4008C34.4153 25.5859 34.7912 25.7471 35.1814 25.875C35.2336 25.91 35.2895 25.9705 35.3195 25.8552C35.3219 25.7773 35.3264 25.6993 35.3264 25.6215C35.3268 18.7712 35.3268 11.9209 35.3263 5.0707C35.3263 4.99283 35.3207 4.91496 35.3176 4.83714C35.3265 4.80734 35.3149 4.79375 35.2838 4.79563C34.0068 4.41101 32.7294 4.02724 31.4528 3.64146C30.3847 3.31874 29.3178 2.99241 28.2497 2.66997C27.6708 2.49521 27.0904 2.32518 26.5107 2.153C26.4705 2.06417 26.4164 2.06904 26.3876 2.1515C26.3603 2.2297 26.3474 2.31811 26.3969 2.3986C26.3959 2.44086 26.3948 2.48308 26.3938 2.52534C26.3547 2.74615 26.2914 2.96763 26.4125 3.18399C26.4228 3.18999 26.4334 3.19556 26.4441 3.20072C26.4636 3.2129 26.4831 3.22508 26.5026 3.23722ZM24.3083 2.54647C24.7068 2.66866 25.1054 2.7908 25.5039 2.913C25.6723 2.99733 25.7694 2.98459 25.7137 2.76339C25.7191 2.67306 25.7245 2.58278 25.7299 2.49245C25.7362 2.37035 25.7425 2.2483 25.7488 2.12625C25.7493 2.10287 25.7498 2.07953 25.7502 2.0562C25.751 1.96798 25.7518 1.87975 25.7526 1.79148C25.7547 1.76215 25.7569 1.73282 25.759 1.70345C25.8244 1.56818 25.7818 1.42299 25.7987 1.28327C26.1888 1.29649 26.5317 1.48718 26.9035 1.57076C27.1165 1.61864 27.325 1.68935 27.5308 1.76286C27.6432 1.80306 27.6749 1.7853 27.7 1.66554C27.7258 1.54251 27.7541 1.42032 27.7398 1.29789C27.694 0.907281 27.8063 0.524261 27.7858 0.134681C27.7754 -0.0631773 27.9189 0.00710167 28.0174 0.036244C28.5117 0.182612 29.0046 0.33343 29.4979 0.482937C31.2615 1.01743 33.0254 1.55108 34.7886 2.08689C35.7972 2.39335 36.8042 2.70483 37.813 3.01026C37.9526 3.05248 38.0001 3.11957 38 3.27184C37.995 10.6478 37.9957 18.0237 37.9953 25.3996C37.9953 25.6651 37.9775 25.6771 37.7311 25.5707C37.1884 25.3363 36.632 25.1323 36.1041 24.8645C35.912 24.7627 35.954 24.9225 35.9534 25.0056C35.9496 25.6314 35.9517 26.2572 35.952 26.883C35.571 26.8419 35.2598 26.6185 34.9108 26.4935C34.655 26.4019 34.407 26.2888 34.1556 26.1854C34.1376 26.1406 34.1056 26.1082 34.0558 26.1128C34.0023 26.1178 34.0108 26.1595 34.0189 26.1965C34.0183 26.7563 34.0176 27.3161 34.017 27.876C34.0145 27.8923 34.0119 27.9086 34.0094 27.9249C34.0094 27.9249 34.0062 27.9301 34.0063 27.9301C33.9424 27.9296 33.8786 27.9291 33.8148 27.9286C33.4093 27.7492 32.9767 27.6476 32.5595 27.502C31.8611 27.2581 31.1648 27.0079 30.4637 26.7717C29.7928 26.5457 29.1061 26.3617 28.4465 26.1081C27.8284 25.8705 27.1875 25.7045 26.5704 25.4649C26.0366 25.2576 25.4796 25.109 24.9348 24.9288C24.7123 24.8553 24.4954 24.7653 24.2747 24.6863C24.1895 24.6557 24.1384 24.6026 24.1473 24.513C24.1691 24.2927 24.0674 24.3117 23.9108 24.3762C22.8674 24.8064 21.8181 25.2229 20.7776 25.6597C18.9369 26.4325 17.0821 27.1714 15.2319 27.9213C14.9625 28.0305 14.7206 28.0226 14.455 27.9189C9.9844 26.1738 5.51206 24.4332 1.0401 22.6916C0.856211 22.62 0.671608 22.5502 0.487859 22.4784C0.120885 22.335 0.000460178 22.1606 0.000412673 21.7666C8.01396e-05 17.2396 0.000222654 12.7127 0.000175149 8.18574C0.000175149 7.71745 -0.000347403 7.24916 0.000412673 6.78082C0.00103023 6.38862 0.118557 6.2124 0.488714 6.06805C3.298 4.97273 6.10782 3.87867 8.91763 2.78471C10.7638 2.0659 12.6118 1.35177 14.4549 0.625322C14.7327 0.515828 14.9786 0.519576 15.2532 0.629211C18.1193 1.77354 20.9884 2.91061 23.8568 4.04908C23.944 4.08366 24.0271 4.13322 24.1259 4.13154C24.215 4.09682 24.1627 4.03582 24.1544 3.98297C24.1545 3.58121 24.1547 3.1794 24.155 2.77759C24.185 2.6978 24.1787 2.61642 24.1659 2.53475C24.1659 2.53475 24.1712 2.52773 24.1712 2.52777C24.2169 2.53405 24.2626 2.54028 24.3083 2.54647Z" fill="#737373"/>
<path fill-rule="evenodd" clip-rule="evenodd" d="M35.9259 26.9983C35.9256 26.3887 35.9235 25.779 35.9274 25.1694C35.9279 25.0885 35.8859 24.9328 36.0781 25.032C35.9457 25.0644 35.9774 25.1686 35.977 25.2544C35.9743 25.8298 35.9739 26.4052 35.9724 26.9806C35.9723 26.9871 35.9677 26.9986 35.9637 26.9993C35.9515 27.0011 35.9386 26.9989 35.9259 26.9983Z" fill="#737373"/>
<path fill-rule="evenodd" clip-rule="evenodd" d="M26.0602 0.827148C26.0275 0.942092 26.1097 1.06155 25.9835 1.17283C25.9544 1.05546 25.8748 0.936118 26.0602 0.827148Z" fill="#737373"/>
<path fill-rule="evenodd" clip-rule="evenodd" d="M24.0376 1.82715C24.0647 1.9434 24.0781 2.05918 24.0144 2.17283C23.9277 2.05484 23.8988 1.93846 24.0376 1.82715Z" fill="#737373"/>
<path fill-rule="evenodd" clip-rule="evenodd" d="M24.0095 3.92578C24.028 3.97855 24.1443 4.03956 23.9461 4.07421C23.9399 4.02247 23.9269 3.97012 24.0095 3.92578Z" fill="#737373"/>
<path fill-rule="evenodd" clip-rule="evenodd" d="M24.0687 2.05807C24.023 2.04531 23.9773 2.03245 23.9316 2.01949C23.9858 1.90674 24.032 1.91312 24.0687 2.05807Z" fill="#737373"/>
<path fill-rule="evenodd" clip-rule="evenodd" d="M35.9828 6C36.0948 6.06623 36.0522 6.14437 36.0522 6.21755C36.0542 12.411 36.0541 18.6045 36.0529 24.798C36.0529 24.8653 36.037 24.9326 36.0285 25C35.8988 24.9279 35.9524 24.8416 35.9523 24.7615C35.9498 18.5823 35.95 12.4031 35.9514 6.22396C35.9515 6.14934 35.9719 6.07467 35.9828 6Z" fill="#737373"/>
<path fill-rule="evenodd" clip-rule="evenodd" d="M34.0341 6.05807C34.0086 6.01918 33.9831 5.9804 33.9574 5.94141C34.0321 5.95448 34.0614 5.99135 34.0341 6.05807Z" fill="#737373"/>
<path fill-rule="evenodd" clip-rule="evenodd" d="M25.9989 2.05807C26.0001 2.01916 26.0013 1.98032 26.0026 1.94141C26.0014 1.98016 26.0002 2.01908 25.9989 2.05807Z" fill="#737373"/>
<path fill-rule="evenodd" clip-rule="evenodd" d="M33.9555 27.0581C33.9736 27.0191 33.9916 26.9803 34.0099 26.9414C34.0692 27.008 34.0585 27.0495 33.9555 27.0581Z" fill="#737373"/>
<path fill-rule="evenodd" clip-rule="evenodd" d="M32.8454 8.99504C32.2112 8.90938 31.5771 8.82371 30.943 8.73808C29.404 8.53025 27.8652 8.32242 26.3263 8.11459C26.2517 8.10449 26.1763 8.09524 26.1027 8.08385C26.0339 8.07318 25.9723 8.05695 26.013 8.0203C26.0468 7.98996 26.1109 8.00063 26.166 8.008C26.3527 8.03296 26.5386 8.05884 26.7251 8.0841C28.7019 8.35167 30.6786 8.6192 32.6553 8.8869C32.7391 8.89827 32.822 8.91105 32.9047 8.9237C32.9623 8.93249 33.0192 8.94437 32.9938 8.97596C32.9673 9.00878 32.9046 9.00012 32.8454 8.99504Z" fill="#737373"/>
<path fill-rule="evenodd" clip-rule="evenodd" d="M26.1291 18.0015C26.4157 18.0391 26.7159 18.0774 27.0146 18.1178C28.9375 18.3777 30.8604 18.6378 32.782 18.8994C32.8692 18.9113 33.0435 18.9055 32.99 18.9714C32.9433 19.029 32.8168 18.9835 32.7368 18.9728C31.5218 18.8107 30.3088 18.646 29.0951 18.4821C28.1241 18.3509 27.1527 18.2202 26.1823 18.0882C26.106 18.0779 25.9895 18.0799 26.0008 18.0265C26.0054 18.004 26.0605 17.9965 26.1291 18.0015Z" fill="#737373"/>
<path fill-rule="evenodd" clip-rule="evenodd" d="M32.9997 15.9529C33.0033 15.9875 32.9728 16.0032 32.9149 15.9994C32.8378 15.9944 32.7617 15.9851 32.6872 15.975C30.522 15.6825 28.357 15.3898 26.1923 15.0967C26.1061 15.085 25.961 15.0847 26.0098 15.0262C26.051 14.9768 26.163 15.0106 26.2391 15.0208C28.4145 15.3132 30.5892 15.6065 32.7637 15.9001C32.8535 15.9123 32.9531 15.9204 32.9997 15.9529Z" fill="#737373"/>
<path fill-rule="evenodd" clip-rule="evenodd" d="M33 20.9644C32.9217 21.0257 32.824 20.9917 32.7404 20.9805C31.9112 20.8693 31.0825 20.7573 30.2545 20.6445C28.9333 20.4644 27.6127 20.2834 26.2919 20.1029C26.2268 20.0939 26.161 20.0857 26.0973 20.0752C26.043 20.0663 25.979 20.0556 26.0066 20.0232C26.0332 19.9922 26.1013 19.9997 26.1571 20.0042C26.2144 20.0088 26.2704 20.0168 26.3261 20.0243C28.4658 20.3159 30.6054 20.6074 32.7446 20.8994C32.8404 20.9125 32.9582 20.9144 33 20.9644Z" fill="#737373"/>
<path fill-rule="evenodd" clip-rule="evenodd" d="M26.1207 13.0004C26.2152 13.0118 26.3104 13.022 26.4037 13.0346C28.525 13.3216 30.6462 13.6088 32.7673 13.8961C32.786 13.8986 32.8043 13.9016 32.8225 13.9048C32.8984 13.9181 33.0293 13.9168 32.9941 13.9688C32.955 14.0266 32.8454 13.9881 32.7741 13.9787C32.0998 13.8896 31.4273 13.7983 30.7544 13.7074C29.2686 13.5067 27.7828 13.3059 26.2972 13.1051C26.2225 13.0949 26.1478 13.0844 26.0745 13.0726C26.0263 13.0649 25.987 13.0516 26.004 13.0264C26.0205 13.0019 26.0687 12.9987 26.1207 13.0004Z" fill="#737373"/>
<path fill-rule="evenodd" clip-rule="evenodd" d="M26.1475 10.0008C26.5336 10.0524 26.9362 10.1053 27.3376 10.1599C29.1397 10.4049 30.9414 10.6503 32.7434 10.8956C32.7714 10.8994 32.8024 10.9006 32.8277 10.9063C32.898 10.9224 33.0375 10.9213 32.9905 10.9734C32.9462 11.0227 32.8386 10.9903 32.7616 10.9799C30.5756 10.6839 28.39 10.3875 26.2053 10.0899C26.1277 10.0793 26.0105 10.0807 26.0004 10.0326C25.9937 10.0003 26.0681 9.99812 26.1475 10.0008Z" fill="#737373"/>
<path fill-rule="evenodd" clip-rule="evenodd" d="M26.1961 15.4969C26.204 15.709 26.3177 15.8123 26.5102 15.812C26.6964 15.8116 26.792 15.6972 26.795 15.5111C26.7979 15.3212 26.6825 15.2053 26.5143 15.196C26.3283 15.1859 26.2117 15.3041 26.1961 15.4969ZM27 15.506C26.9972 15.7889 26.7821 16.0004 26.4974 16C26.2067 15.9996 26.002 15.7956 26 15.5044C25.9982 15.2318 26.2288 14.9987 26.4991 15C26.7667 15.0013 27.0025 15.2396 27 15.506Z" fill="#737373"/>
<path fill-rule="evenodd" clip-rule="evenodd" d="M26.7977 10.4792C26.7781 10.3029 26.6823 10.1977 26.4959 10.2C26.2956 10.2024 26.1897 10.3139 26.1969 10.5118C26.2043 10.7139 26.3293 10.8071 26.5239 10.7945C26.7109 10.7823 26.7935 10.6639 26.7977 10.4792ZM26.5007 11C26.2317 11.0031 26.0021 10.7742 26 10.5011C25.998 10.2282 26.2195 10.0047 26.4967 10.0001C26.7622 9.99558 27.0001 10.2305 27 10.497C26.9999 10.7684 26.7732 10.9968 26.5007 11Z" fill="#737373"/>
<path fill-rule="evenodd" clip-rule="evenodd" d="M26.4812 13.2025C26.3015 13.22 26.1956 13.3159 26.1967 13.5019C26.1978 13.7017 26.3089 13.8093 26.5074 13.8032C26.7095 13.797 26.8051 13.6734 26.7935 13.4782C26.7824 13.2912 26.6643 13.2077 26.4812 13.2025ZM26.4956 14C26.2181 14.0001 25.9966 13.7763 26 13.4993C26.0035 13.2218 26.2299 12.9961 26.5008 13.0001C26.7753 13.004 26.9999 13.2312 27 13.5049C27.0001 13.7779 26.774 13.9999 26.4956 14Z" fill="#737373"/>
<path fill-rule="evenodd" clip-rule="evenodd" d="M26.7972 18.4961C26.7874 18.33 26.6947 18.1987 26.52 18.1917C26.337 18.1843 26.203 18.2945 26.2009 18.4964C26.1987 18.6934 26.3094 18.8147 26.5062 18.81C26.6836 18.8058 26.7903 18.701 26.7972 18.4961ZM26.4883 18.9999C26.2171 18.9962 25.9951 18.7648 26.0001 18.4909C26.005 18.2186 26.2394 17.9929 26.5097 18.0002C26.7784 18.0075 27.0081 18.248 26.9998 18.5135C26.9911 18.7897 26.7661 19.0038 26.4883 18.9999Z" fill="#737373"/>
<path fill-rule="evenodd" clip-rule="evenodd" d="M26.7982 8.48089C26.7832 8.29206 26.6838 8.18133 26.486 8.18747C26.304 8.19319 26.2039 8.29814 26.1992 8.48225C26.194 8.68258 26.3124 8.80281 26.4941 8.80469C26.676 8.80652 26.7908 8.6873 26.7982 8.48089ZM26.9996 8.50608C26.9889 8.78175 26.7512 9.01087 26.4875 8.9996C26.2085 8.98774 25.9909 8.75738 26.0003 8.4839C26.0108 8.18021 26.2317 7.982 26.5383 8.00129C26.8041 8.01799 27.0098 8.24316 26.9996 8.50608Z" fill="#737373"/>
<path fill-rule="evenodd" clip-rule="evenodd" d="M26.7972 20.5034C26.7918 20.3022 26.6849 20.1875 26.4944 20.1895C26.3019 20.1915 26.1951 20.3162 26.201 20.5106C26.2066 20.6902 26.316 20.8058 26.4906 20.8096C26.6799 20.8136 26.7903 20.7019 26.7972 20.5034ZM27 20.494C27.0032 20.7603 26.771 20.9971 26.5037 21C26.2301 21.0029 26.0026 20.7793 26 20.5049C25.9974 20.2298 26.2206 20.0018 26.4942 20C26.7712 19.9982 26.9966 20.2183 27 20.494Z" fill="#737373"/>
</svg>
