<svg width="16" height="11" viewBox="0 0 16 11" fill="none" xmlns="http://www.w3.org/2000/svg">
<path fill-rule="evenodd" clip-rule="evenodd" d="M14.4935 0H1.50649C0.675325 0 0 0.676123 0 1.50827V9.49173C0 10.3239 0.675325 11 1.50649 11H14.4935C15.3247 11 16 10.3239 16 9.49173V1.50827C16 0.676123 15.3247 0 14.4935 0ZM14.4935 0.910165C14.6234 0.910165 14.7273 0.93617 14.8312 1.01418L8.36364 4.9409C8.12987 5.07092 7.87013 5.07092 7.63636 4.9409L1.16883 1.01418C1.27273 0.962175 1.37662 0.910165 1.50649 0.910165H14.4935ZM1.50649 10.0638H14.4935C14.8052 10.0638 15.0909 9.80378 15.039 9.46572V1.92435L8.80519 5.72104C8.54545 5.87707 8.25974 5.95508 7.97403 5.95508C7.68831 5.95508 7.4026 5.87707 7.14286 5.72104L0.909091 1.92435V9.46572C0.909091 9.80378 1.19481 10.0638 1.50649 10.0638Z" fill="#DE0200"/>
</svg>
