<svg width="25" height="30" viewBox="0 0 25 30" fill="none" xmlns="http://www.w3.org/2000/svg">
<path fill-rule="evenodd" clip-rule="evenodd" d="M0.335938 11.952C0.335938 5.46809 5.81671 0.145508 12.4994 0.145508C19.1821 0.145508 24.6629 5.4197 24.6629 11.952C24.6629 17.1294 17.3071 25.7423 14.134 29.1778C13.7013 29.6616 13.1244 29.9036 12.4994 29.9036C11.8744 29.9036 11.2975 29.6616 10.8648 29.1778C7.69171 25.6939 0.335938 17.1294 0.335938 11.952ZM12.1148 28.0165C12.3071 28.2584 12.6436 28.2584 12.884 28.0165C15.2398 25.4036 22.9802 16.6455 22.9802 11.952C22.9802 6.38744 18.2686 1.83906 12.4994 1.83906C6.73017 1.83906 2.01863 6.33906 2.01863 11.952C2.01863 16.6455 9.75902 25.452 12.1148 28.0165Z" fill="#DE0200"/>
<path fill-rule="evenodd" clip-rule="evenodd" d="M7.30664 12.3391C7.30664 9.43586 9.66241 7.11328 12.4989 7.11328C15.3355 7.11328 17.6913 9.43586 17.6913 12.3391C17.6913 15.2423 15.3836 17.5649 12.4989 17.5649C9.61433 17.5649 7.30664 15.1939 7.30664 12.3391ZM8.98933 12.2907C8.98933 14.2262 10.5759 15.823 12.4989 15.823C14.422 15.823 16.0086 14.2262 16.0086 12.2907C16.0086 10.3552 14.422 8.75844 12.4989 8.75844C10.5759 8.75844 8.98933 10.3552 8.98933 12.2907Z" fill="#DE0200"/>
</svg>
