<svg width="51" height="49" viewBox="0 0 51 49" fill="none" xmlns="http://www.w3.org/2000/svg">
<path d="M25.6729 1.7666C38.8349 1.7666 49.501 12.455 49.501 25.6338C49.5008 38.8125 38.8348 49.5 25.6729 49.5C12.5111 49.4998 1.84588 38.8123 1.8457 25.6338C1.8457 12.4551 12.511 1.76684 25.6729 1.7666Z" fill="url(#paint0_linear_0_8732)" stroke="white" stroke-width="3"/>
<path fill-rule="evenodd" clip-rule="evenodd" d="M13.5527 23.6329C13.5527 18.0633 18.4393 13.4912 24.3976 13.4912C30.3558 13.4912 35.2424 18.0217 35.2424 23.6329C35.2424 28.0803 28.6841 35.4788 25.855 38.4299C25.4692 38.8455 24.9548 39.0533 24.3976 39.0533C23.8403 39.0533 23.3259 38.8455 22.9402 38.4299C20.1111 35.4372 13.5527 28.0803 13.5527 23.6329ZM24.0546 37.4323C24.2261 37.6402 24.5262 37.6402 24.7405 37.4323C26.8409 35.1878 33.7421 27.6647 33.7421 23.6329C33.7421 18.853 29.5414 14.946 24.3976 14.946C19.2538 14.946 15.053 18.8115 15.053 23.6329C15.053 27.6647 21.9543 35.2294 24.0546 37.4323Z" fill="white"/>
<path fill-rule="evenodd" clip-rule="evenodd" d="M20.7832 23.4322C20.7832 21.0654 22.7513 19.1719 25.1211 19.1719C27.4909 19.1719 29.4591 21.0654 29.4591 23.4322C29.4591 25.7991 27.5311 27.6926 25.1211 27.6926C22.7112 27.6926 20.7832 25.7596 20.7832 23.4322ZM22.189 23.3928C22.189 24.9707 23.5145 26.2725 25.1211 26.2725C26.7278 26.2725 28.0533 24.9707 28.0533 23.3928C28.0533 21.8149 26.7278 20.5131 25.1211 20.5131C23.5145 20.5131 22.189 21.8149 22.189 23.3928Z" fill="white"/>
<defs>
<linearGradient id="paint0_linear_0_8732" x1="3.3457" y1="3.2666" x2="3.3457" y2="48.0003" gradientUnits="userSpaceOnUse">
<stop stop-color="#FF8700"/>
<stop offset="1" stop-color="#DE0200"/>
</linearGradient>
</defs>
</svg>
