<svg width="17" height="20" viewBox="0 0 17 20" fill="none" xmlns="http://www.w3.org/2000/svg">
<path fill-rule="evenodd" clip-rule="evenodd" d="M0.224609 7.96765C0.224609 3.64507 3.87846 0.0966797 8.33358 0.0966797C12.7887 0.0966797 16.4426 3.61281 16.4426 7.96765C16.4426 11.4193 11.5387 17.1612 9.42333 19.4515C9.13487 19.7741 8.75025 19.9354 8.33358 19.9354C7.91692 19.9354 7.5323 19.7741 7.24384 19.4515C5.12846 17.1289 0.224609 11.4193 0.224609 7.96765ZM8.07717 18.6773C8.20538 18.8386 8.42974 18.8386 8.58999 18.6773C10.1605 16.9354 15.3208 11.0967 15.3208 7.96765C15.3208 4.25797 12.1797 1.22571 8.33358 1.22571C4.48743 1.22571 1.3464 4.22571 1.3464 7.96765C1.3464 11.0967 6.50666 16.9676 8.07717 18.6773Z" fill="white"/>
<path fill-rule="evenodd" clip-rule="evenodd" d="M4.87109 8.22606C4.87109 6.29057 6.44161 4.74219 8.33263 4.74219C10.2237 4.74219 11.7942 6.29057 11.7942 8.22606C11.7942 10.1615 10.2557 11.7099 8.33263 11.7099C6.40956 11.7099 4.87109 10.1293 4.87109 8.22606ZM5.99289 8.1938C5.99289 9.48412 7.05058 10.5486 8.33263 10.5486C9.61468 10.5486 10.6724 9.48412 10.6724 8.1938C10.6724 6.90348 9.61468 5.83896 8.33263 5.83896C7.05058 5.83896 5.99289 6.90348 5.99289 8.1938Z" fill="white"/>
</svg>
