<svg width="13" height="16" viewBox="0 0 13 16" fill="none" xmlns="http://www.w3.org/2000/svg">
<path fill-rule="evenodd" clip-rule="evenodd" d="M0 6.325C0 2.8 2.89792 0 6.5 0C10.1021 0 13 2.8 13 6.325C13 9.275 8.53125 14.275 7.15 15.725C7.01458 15.875 6.79792 16 6.5 16C6.28333 16 5.98542 15.925 5.85 15.725C4.46875 14.25 0 9.325 0 6.325ZM1.43542 6.325C1.43542 8.2 4.03542 11.725 6.5 14.4C8.96458 11.725 11.5646 8.2 11.5646 6.325C11.5646 3.6 9.31667 1.325 6.5 1.325C3.68333 1.325 1.43542 3.525 1.43542 6.325Z" fill="#DE0200"/>
<path fill-rule="evenodd" clip-rule="evenodd" d="M4 6C4 4.34579 5.34579 3 7 3C8.65421 3 10 4.34579 10 6C10 7.65421 8.65421 9 7 9C5.34579 9 4 7.65421 4 6ZM5.51402 6C5.51402 6.81308 6.18692 7.48598 7 7.48598C7.81308 7.48598 8.48598 6.81308 8.48598 6C8.48598 5.18692 7.81308 4.51402 7 4.51402C6.18692 4.51402 5.51402 5.18692 5.51402 6Z" fill="#DE0200"/>
</svg>
