<svg width="15" height="15" viewBox="0 0 15 15" fill="none" xmlns="http://www.w3.org/2000/svg">
<path d="M14.7083 11.9274L13.0454 10.8187L11.5672 9.83338C11.2819 9.64357 10.8985 9.70579 10.6878 9.97614L9.77312 11.1521C9.57663 11.4072 9.22316 11.4806 8.94139 11.3246C8.32071 10.9793 7.58674 10.6542 5.96729 9.03271C4.34783 7.41117 4.02068 6.67929 3.67542 6.05861C3.51941 5.77684 3.59274 5.42337 3.84791 5.22691L5.02385 4.31219C5.29417 4.1016 5.35642 3.7182 5.16661 3.43288L4.21154 2.00013L3.07258 0.291677C2.87873 0.000879496 2.49066 -0.0864242 2.19096 0.09331L0.877418 0.881328C0.522431 1.09048 0.261487 1.42821 0.148637 1.8245C-0.210569 3.13414 -0.28299 6.02316 4.34704 10.6532C8.97707 15.2832 11.8658 15.2106 13.1755 14.8513C13.5718 14.7385 13.9095 14.4776 14.1186 14.1225L14.9067 12.809C15.0864 12.5093 14.9991 12.1213 14.7083 11.9274Z" fill="#DE0200"/>
<path d="M8.24998 3.49999C10.5961 3.5026 12.4974 5.40385 12.5 7.74999C12.5 7.88805 12.6119 8 12.75 8C12.8881 8 13 7.88808 13 7.74999C12.9971 5.12784 10.8722 3.00289 8.25001 3C8.11195 3 8 3.11192 8 3.25001C7.99997 3.38804 8.11189 3.49999 8.24998 3.49999Z" fill="#DE0200"/>
<path d="M7.28573 4.57145C9.02063 4.57349 10.4265 5.9794 10.4285 7.71427C10.4285 7.87206 10.5565 8 10.7143 8C10.8721 8 11 7.87209 11 7.71427C10.9976 5.66393 9.3361 4.00236 7.28573 4C7.12794 4 7 4.12791 7 4.28573C7 4.44354 7.12791 4.57145 7.28573 4.57145Z" fill="#DE0200"/>
<path d="M7.37497 5.74999C8.41001 5.75122 9.24874 6.58995 9.24997 7.62498C9.24997 7.83208 9.41785 8 9.62498 8C9.83208 8 10 7.83212 10 7.62498C9.99834 6.17594 8.82406 5.00166 7.37502 5C7.16792 5 7 5.16788 7 5.37502C6.99996 5.58211 7.16784 5.74999 7.37497 5.74999Z" fill="#DE0200"/>
</svg>
