<svg width="30" height="30" viewBox="0 0 30 30" fill="none" xmlns="http://www.w3.org/2000/svg">
<mask id="mask0_0_6484" style="mask-type:luminance" maskUnits="userSpaceOnUse" x="0" y="3" width="27" height="27">
<path fill-rule="evenodd" clip-rule="evenodd" d="M0 3.0498H26.9559V29.9996H0V3.0498Z" fill="white"/>
</mask>
<g mask="url(#mask0_0_6484)">
<path fill-rule="evenodd" clip-rule="evenodd" d="M20.5517 29.9996C20.0472 29.916 19.5394 29.8489 19.039 29.7456C17.7012 29.469 16.4496 28.9469 15.2319 28.3452C10.4088 25.9619 6.54753 22.4805 3.53286 18.0434C2.22421 16.1173 1.17873 14.0551 0.485771 11.8283C0.0826958 10.533 -0.154706 9.21051 0.115177 7.84523C0.242771 7.1995 0.521285 6.63029 0.979003 6.16277C1.76626 5.35878 2.55748 4.55776 3.37022 3.77978C4.38788 2.80579 5.52795 2.80428 6.53861 3.78847C7.72008 4.93897 8.87741 6.11437 10.036 7.28809C10.5525 7.81129 10.886 8.41958 10.772 9.19202C10.6869 9.76742 10.3582 10.2068 9.96283 10.6038C9.30567 11.2637 8.64304 11.9182 7.98413 12.5764C7.64205 12.9181 7.63506 13.0078 7.83012 13.445C8.58017 15.1263 9.72933 16.5252 10.9621 17.8617C12.19 19.193 13.5419 20.3854 15.0792 21.3506C15.6029 21.6794 16.1673 21.9431 16.7125 22.2376C16.9645 22.3737 17.1542 22.2695 17.3326 22.0897C18.0091 21.408 18.6831 20.7237 19.3691 20.0516C19.5752 19.8496 19.7999 19.6561 20.0456 19.5072C20.8266 19.0343 21.6854 19.1091 22.3939 19.6879C22.5363 19.8043 22.6753 19.9264 22.8056 20.0561C23.9055 21.1514 25.0113 22.2408 26.0952 23.3518C26.3615 23.6247 26.6098 23.944 26.7682 24.2873C27.1088 25.0257 26.9767 25.7638 26.4463 26.3483C25.5869 27.2954 24.677 28.1987 23.758 29.0892C23.2525 29.5788 22.6034 29.824 21.9089 29.9383C21.8241 29.9523 21.7413 29.9789 21.6576 29.9996H20.5517Z" fill="#DE0200"/>
</g>
<mask id="mask1_0_6484" style="mask-type:luminance" maskUnits="userSpaceOnUse" x="15" y="0" width="15" height="15">
<path fill-rule="evenodd" clip-rule="evenodd" d="M15.0176 0.00390625H29.9489V14.223H15.0176V0.00390625Z" fill="white"/>
</mask>
<g mask="url(#mask1_0_6484)">
<path fill-rule="evenodd" clip-rule="evenodd" d="M29.949 13.8152C29.1882 13.9491 28.4275 14.0829 27.6312 14.223C27.0538 11.1108 25.6318 8.44977 23.3255 6.25925C21.0168 4.06654 18.2553 2.75058 15.0176 2.27312C15.1255 1.51279 15.2321 0.761579 15.3395 0.00390625C16.8028 0.199195 18.1913 0.564214 19.5273 1.10525C22.0369 2.1215 24.1826 3.64158 25.9639 5.64321C27.6907 7.58364 28.9005 9.79989 29.5895 12.2836C29.7198 12.7529 29.8297 13.2277 29.949 13.6999V13.8152Z" fill="#DE0200"/>
</g>
<path fill-rule="evenodd" clip-rule="evenodd" d="M15 8.29561C15.106 7.52553 15.211 6.76226 15.3159 6C19.3113 6.46032 23.2072 9.81499 24 14.6028C23.2533 14.7347 22.506 14.8667 21.7516 15C20.9045 11.2913 18.6695 9.06719 15 8.29561Z" fill="#DE0200"/>
</svg>
