<svg width="17" height="17" viewBox="0 0 17 17" fill="none" xmlns="http://www.w3.org/2000/svg">
<path fill-rule="evenodd" clip-rule="evenodd" d="M12.6575 11.723L16.8063 15.8717C17.0645 16.1298 17.0645 16.5483 16.8064 16.8064C16.6773 16.9355 16.5081 17 16.339 17C16.1699 17 16.0007 16.9355 15.8717 16.8064L11.7228 12.6576C10.4826 13.6888 8.89011 14.31 7.15507 14.31C3.20974 14.31 0 11.1004 0 7.15527C0 3.20984 3.20974 0 7.15507 0C11.1003 0 14.3101 3.20984 14.3101 7.15527C14.3101 8.8904 13.6888 10.4829 12.6575 11.723ZM7.15508 1.3219C3.93864 1.3219 1.3219 3.93874 1.3219 7.15527C1.3219 10.3715 3.93864 12.9881 7.15508 12.9881C10.3714 12.9881 12.9881 10.3715 12.9881 7.15527C12.9881 3.93874 10.3714 1.3219 7.15508 1.3219Z" fill="white"/>
</svg>
