<svg width="74" height="50" viewBox="0 0 74 50" fill="none" xmlns="http://www.w3.org/2000/svg">
<path fill-rule="evenodd" clip-rule="evenodd" d="M71.5333 39.0245H72.7667C73.4478 39.0245 74 39.5705 74 40.244V42.683C74 44.7036 72.3435 46.3416 70.3 46.3416H66.8319C65.5144 48.605 63.0744 50 60.4333 50C57.7922 50 55.3523 48.605 54.0348 46.3416H24.8985C23.581 48.605 21.1411 50 18.5 50C15.8589 50 13.419 48.605 12.1015 46.3416H6.16667C4.12321 46.3416 2.46667 44.7036 2.46667 42.683V41.4635H1.23333C0.552182 41.4635 0 40.9175 0 40.244V1.21952C0 0.545996 0.552182 0 1.23333 0H50.5667C51.2478 0 51.8 0.545996 51.8 1.21952V14.6342H60.4333C66.5609 14.6409 71.5265 19.5509 71.5333 25.6098V39.0245ZM57.9667 28.0489H69.0667V25.6098C69.0612 20.8974 65.1991 17.0786 60.4333 17.0732H56.7333V26.8293C56.7333 27.5029 57.2855 28.0489 57.9667 28.0489ZM54.2667 17.0732V26.8293C54.2667 28.8499 55.9232 30.4879 57.9667 30.4879H69.0667V39.0245H66.8319C65.5144 36.7611 63.0744 35.3661 60.4333 35.3661C57.7922 35.3661 55.3523 36.7611 54.0348 39.0245H51.8V17.0732H54.2667ZM18.5 35.3661C21.1411 35.3661 23.581 36.7611 24.8985 39.0245H49.3333V34.1464H2.46667V39.0245H12.1015C13.419 36.7611 15.8589 35.3661 18.5 35.3661ZM2.46667 2.43903H49.3333V31.7074H2.46667V2.43903ZM4.93333 42.683C4.93333 43.3566 5.48552 43.9026 6.16667 43.9026H11.211C11.063 43.0961 11.063 42.2699 11.211 41.4635H4.93333V42.683ZM18.5 47.5611C15.7754 47.5611 13.5667 45.3771 13.5667 42.683C13.5667 39.989 15.7754 37.805 18.5 37.805C21.2246 37.805 23.4333 39.989 23.4333 42.683C23.4333 45.3771 21.2246 47.5611 18.5 47.5611ZM25.789 41.4635C25.937 42.2699 25.937 43.0961 25.789 43.9026H53.1443C52.9963 43.0961 52.9963 42.2699 53.1443 41.4635H25.789ZM60.4333 47.5611C57.7087 47.5611 55.5 45.3771 55.5 42.683C55.5 39.989 57.7087 37.805 60.4333 37.805C63.1579 37.805 65.3667 39.989 65.3667 42.683C65.3667 45.3771 63.1579 47.5611 60.4333 47.5611ZM70.3 43.9026C70.9812 43.9026 71.5333 43.3566 71.5333 42.683V41.4635H67.7223C67.8704 42.2699 67.8704 43.0961 67.7223 43.9026H70.3Z" fill="white"/>
<path d="M8.16667 24C8.811 24 9.33333 23.418 9.33333 22.7V18.8H11.6667C12.311 18.8 12.8333 18.218 12.8333 17.5C12.8333 16.782 12.311 16.2 11.6667 16.2H9.33333V13.6H12.8333C13.4777 13.6 14 13.018 14 12.3C14 11.582 13.4777 11 12.8333 11H8.16667C7.52233 11 7 11.582 7 12.3V22.7C7 23.418 7.52233 24 8.16667 24Z" fill="white"/>
<path fill-rule="evenodd" clip-rule="evenodd" d="M19.3333 22.6999C19.3333 23.4179 18.811 23.9999 18.1667 23.9999C17.5223 23.9999 17 23.4179 17 22.6999V12.3C17 11.582 17.5223 11 18.1667 11H20.5C22.2281 10.9962 23.6986 12.4021 23.9579 14.3059C24.2172 16.2098 23.1873 18.0385 21.536 18.6063L23.7666 21.9199C24.1532 22.4943 24.0487 23.3091 23.5333 23.7399C23.0178 24.1707 22.2865 24.0543 21.9 23.4799L19.3333 19.667V22.6999ZM20.5 16.2C21.1443 16.2 21.6666 15.6179 21.6666 14.9C21.6666 14.182 21.1443 13.6 20.5 13.6H19.3333V16.2H20.5Z" fill="white"/>
<path d="M28.1667 24H32.8333C33.4777 24 34 23.418 34 22.7C34 21.982 33.4777 21.4 32.8333 21.4H29.3333V18.8H31.6667C32.311 18.8 32.8333 18.218 32.8333 17.5C32.8333 16.782 32.311 16.2 31.6667 16.2H29.3333V13.6H32.8333C33.4777 13.6 34 13.018 34 12.3C34 11.582 33.4777 11 32.8333 11H28.1667C27.5223 11 27 11.582 27 12.3V22.7C27 23.418 27.5223 24 28.1667 24Z" fill="white"/>
<path d="M38.1667 24H42.8333C43.4777 24 44 23.418 44 22.7C44 21.982 43.4777 21.4 42.8333 21.4H39.3333V18.8H41.6667C42.311 18.8 42.8333 18.218 42.8333 17.5C42.8333 16.782 42.311 16.2 41.6667 16.2H39.3333V13.6H42.8333C43.4777 13.6 44 13.018 44 12.3C44 11.582 43.4777 11 42.8333 11H38.1667C37.5223 11 37 11.582 37 12.3V22.7C37 23.418 37.5223 24 38.1667 24Z" fill="white"/>
</svg>
