<svg width="30" height="30" viewBox="0 0 30 30" fill="none" xmlns="http://www.w3.org/2000/svg">
<path fill-rule="evenodd" clip-rule="evenodd" d="M17.5998 21.1165C19.0408 21.1165 20.4818 21.1186 21.9226 21.1154C22.469 21.1142 22.8587 20.7496 22.8647 20.2486C22.8709 19.7371 22.4747 19.3666 21.913 19.3623C21.5527 19.3596 21.1925 19.3618 20.8323 19.3618C18.3301 19.3618 15.8279 19.3637 13.3258 19.3598C12.931 19.3591 12.6192 19.4914 12.4362 19.8516C12.1306 20.4531 12.5673 21.1126 13.277 21.115C14.7179 21.12 16.1588 21.1165 17.5998 21.1165ZM17.6326 15.8522C15.5874 15.8522 13.5423 15.8502 11.4972 15.8537C11.0127 15.8545 10.6416 16.1823 10.5892 16.6333C10.5385 17.0695 10.8339 17.4844 11.2784 17.5829C11.4 17.6099 11.5297 17.606 11.6558 17.606C14.6553 17.6071 17.6548 17.6069 20.6543 17.6069C21.6672 17.6069 22.68 17.6072 23.6928 17.6067C24.0924 17.6064 24.3899 17.4311 24.5488 17.0632C24.8053 16.4695 24.3643 15.8547 23.6803 15.8535C21.6644 15.8498 19.6484 15.8521 17.6326 15.8522ZM29.9426 9.94417C29.7278 10.6485 29.5056 11.3506 29.2995 12.0574C28.3243 15.4009 27.3538 18.7459 26.381 22.0902C26.2131 22.6678 25.9445 22.871 25.3469 22.8711C20.1824 22.8716 15.018 22.8716 9.85344 22.8711C9.25795 22.871 8.98502 22.6625 8.82454 22.0853C7.46182 17.1831 6.09969 12.2807 4.73721 7.37835C4.71137 7.28554 4.68272 7.19349 4.64856 7.07794H4.32981C3.20926 7.07794 2.08866 7.07952 0.968051 7.07724C0.399106 7.07606 0.00348107 6.71659 2.4036e-05 6.20583C-0.00355018 5.69349 0.39184 5.32487 0.95686 5.32394C2.37952 5.32165 3.80223 5.32177 5.22489 5.32394C5.75809 5.3247 6.04954 5.55081 6.19608 6.0723C6.43022 6.90585 6.6609 7.7404 6.89364 8.57437C6.91678 8.65728 6.94432 8.7389 6.97344 8.83276C8.2403 8.83276 9.49672 8.84009 10.7529 8.82644C10.9978 8.8238 11.0975 8.90425 11.1876 9.1286C12.4413 12.2504 15.4502 14.2609 18.8076 14.076C22.1345 13.8928 24.4421 12.153 25.7752 9.11437C25.8681 8.90261 25.9562 8.82198 26.1918 8.82638C27.0587 8.84249 27.9268 8.85345 28.7931 8.82521C29.3304 8.80763 29.7169 8.9806 29.9426 9.47618V9.94417Z" fill="#DE0200"/>
<mask id="mask0_0_6468" style="mask-type:luminance" maskUnits="userSpaceOnUse" x="9" y="24" width="6" height="6">
<path fill-rule="evenodd" clip-rule="evenodd" d="M9.70898 24.625H14.9692V29.948H9.70898V24.625Z" fill="white"/>
</mask>
<g mask="url(#mask0_0_6468)">
<path fill-rule="evenodd" clip-rule="evenodd" d="M11.9881 29.948C11.327 29.7934 10.7502 29.4993 10.3147 28.9595C9.55953 28.0235 9.5041 26.7179 10.1843 25.751C10.8593 24.7914 12.0863 24.3882 13.1858 24.7646C14.2996 25.1458 15.0226 26.2186 14.9661 27.4055C14.9093 28.5983 14.0201 29.6435 12.8518 29.8928C12.7964 29.9046 12.7438 29.9293 12.6898 29.948H11.9881Z" fill="#DE0200"/>
</g>
<mask id="mask1_0_6468" style="mask-type:luminance" maskUnits="userSpaceOnUse" x="20" y="24" width="6" height="6">
<path fill-rule="evenodd" clip-rule="evenodd" d="M20.2363 24.625H25.4966V29.948H20.2363V24.625Z" fill="white"/>
</mask>
<g mask="url(#mask1_0_6468)">
<path fill-rule="evenodd" clip-rule="evenodd" d="M22.5158 29.948C21.8332 29.7898 21.2443 29.4796 20.8068 28.9133C20.077 27.9687 20.0434 26.6826 20.7292 25.7276C21.4064 24.7845 22.6241 24.3915 23.7133 24.7645C24.8173 25.1425 25.538 26.1992 25.4948 27.3761C25.4505 28.5807 24.5584 29.6413 23.3796 29.8927C23.3242 29.9046 23.2715 29.9293 23.2176 29.948H22.5158Z" fill="#DE0200"/>
</g>
<path fill-rule="evenodd" clip-rule="evenodd" d="M17.6617 5.32272C17.351 5.32272 17.0881 5.31932 16.8253 5.32342C16.3027 5.33168 15.9153 5.6983 15.9081 6.18656C15.9007 6.68748 16.2918 7.06799 16.828 7.07655C17.0978 7.08088 17.3677 7.07731 17.6616 7.07731C17.6616 7.3599 17.6602 7.61115 17.6619 7.86235C17.6657 8.43217 18.0219 8.82762 18.5327 8.83119C19.0444 8.83477 19.4105 8.43914 19.4156 7.87418C19.418 7.61479 19.416 7.35533 19.416 7.07737C19.705 7.07737 19.9568 7.07918 20.2086 7.07701C20.7753 7.07227 21.1702 6.70992 21.1692 6.19781C21.1683 5.68641 20.7727 5.32682 20.2047 5.32295C19.9461 5.32119 19.6876 5.32266 19.4159 5.32266C19.4159 5.01744 19.4193 4.755 19.4153 4.49274C19.4068 3.95338 19.0309 3.56332 18.5295 3.5686C18.0397 3.57381 17.6713 3.95948 17.6626 4.48207C17.6581 4.75248 17.6617 5.02301 17.6617 5.32272ZM18.4863 12.3417C15.1076 12.3444 12.3461 9.59215 12.3399 6.21574C12.3334 2.81074 15.1044 0.00287339 18.4737 2.29511e-06C21.8458 -0.00292739 24.6226 2.79932 24.6208 6.20321C24.619 9.58272 21.8646 12.3389 18.4863 12.3417Z" fill="#DE0200"/>
</svg>
